<svg width="81" height="81" viewBox="0 0 81 81" fill="none" xmlns="http://www.w3.org/2000/svg">
<circle cx="40.5" cy="40.5" r="40.5" fill="#EAE2D7"/>
<g filter="url(#filter0_d_13_4)">
<path d="M11.6 59V22H19.6V59H11.6ZM26.6855 59V32.45H34.2855L34.5355 37.25L33.4855 37.3C33.8855 36.4333 34.3855 35.6667 34.9855 35C35.6189 34.3333 36.3189 33.7833 37.0855 33.35C37.8855 32.8833 38.7022 32.5333 39.5355 32.3C40.4022 32.0667 41.2689 31.95 42.1355 31.95C43.4355 31.95 44.6189 32.15 45.6855 32.55C46.7522 32.95 47.6855 33.6 48.4855 34.5C49.2855 35.3667 49.9189 36.55 50.3855 38.05L49.1355 37.95L49.5355 37.15C49.9689 36.35 50.5189 35.6333 51.1855 35C51.8855 34.3333 52.6522 33.7833 53.4855 33.35C54.3189 32.8833 55.1855 32.5333 56.0855 32.3C56.9855 32.0667 57.8522 31.95 58.6855 31.95C60.7855 31.95 62.5355 32.3667 63.9355 33.2C65.3355 34 66.3855 35.2167 67.0855 36.85C67.8189 38.4833 68.1855 40.4667 68.1855 42.8V59H60.1355V43.45C60.1355 42.3833 59.9855 41.5 59.6855 40.8C59.3855 40.1 58.9355 39.5833 58.3355 39.25C57.7689 38.8833 57.0522 38.7 56.1855 38.7C55.4855 38.7 54.8355 38.8167 54.2355 39.05C53.6689 39.2833 53.1689 39.6 52.7355 40C52.3355 40.4 52.0189 40.8667 51.7855 41.4C51.5522 41.9333 51.4355 42.5333 51.4355 43.2V59H43.3855V43.4C43.3855 42.4 43.2355 41.55 42.9355 40.85C42.6355 40.15 42.1855 39.6167 41.5855 39.25C40.9855 38.8833 40.2855 38.7 39.4855 38.7C38.7855 38.7 38.1355 38.8167 37.5355 39.05C36.9689 39.2833 36.4689 39.6 36.0355 40C35.6355 40.4 35.3189 40.8667 35.0855 41.4C34.8522 41.9333 34.7355 42.5167 34.7355 43.15V59H26.6855Z" fill="black"/>
</g>
<defs>
<filter id="filter0_d_13_4" x="11.6" y="22" width="60.5856" height="43" filterUnits="userSpaceOnUse" color-interpolation-filters="sRGB">
<feFlood flood-opacity="0" result="BackgroundImageFix"/>
<feColorMatrix in="SourceAlpha" type="matrix" values="0 0 0 0 0 0 0 0 0 0 0 0 0 0 0 0 0 0 127 0" result="hardAlpha"/>
<feOffset dx="2" dy="4"/>
<feGaussianBlur stdDeviation="1"/>
<feComposite in2="hardAlpha" operator="out"/>
<feColorMatrix type="matrix" values="0 0 0 0 0 0 0 0 0 0 0 0 0 0 0 0 0 0 0.25 0"/>
<feBlend mode="normal" in2="BackgroundImageFix" result="effect1_dropShadow_13_4"/>
<feBlend mode="normal" in="SourceGraphic" in2="effect1_dropShadow_13_4" result="shape"/>
</filter>
</defs>
</svg>
